<svg width="512" height="512" viewBox="0 0 512 512" fill="none" xmlns="http://www.w3.org/2000/svg">
<rect x="10" y="248" width="490" height="40" rx="20" transform="rotate(-30 10 248)" />
<rect x="30.5" y="229.688" width="490" height="40" rx="20" transform="rotate(30 30.5 229.688)" />
<path d="M311 256C311 294.33 303.666 328.053 292.686 351.447C280.961 376.425 268.729 383 262 383C255.271 383 243.039 376.425 231.314 351.447C220.334 328.053 213 294.33 213 256C213 217.67 220.334 183.947 231.314 160.553C243.039 135.575 255.271 129 262 129C268.729 129 280.961 135.575 292.686 160.553C303.666 183.947 311 217.67 311 256Z" stroke="black" stroke-width="40"/>
<path fill-rule="evenodd" clip-rule="evenodd" d="M365.483 464.478C398.725 407.643 419 336.023 419 256C419 174.348 397.892 101.445 363.438 44.0709L394.413 25.9766C432.994 89.3477 455.999 169.212 455.999 256C455.999 341.121 433.87 419.582 396.618 482.354L365.483 464.478Z" />
</svg>
